# xmcd
#
# Track frame offsets:
# 150
# 15534
# 33236
# 56673
# 81152
# 107738
# 135910
# 146510
# 168655
# 189970
# 208393
# 229142
# 262732
#
# Disc length: 3723 seconds
#
#
# Revision: 0
# Processed by: cddbd v1.5.1PL0 Copyright (c) Steve Scherf et al.
# Submitted via: FreeRIP 2.80 
#
DISCID=aa0e890d
DTITLE=Will - Cries of A Grateful Heart
DYEAR=2001
DGENRE=Contemporary Christian
TTITLE0=Flicker
TTITLE1=Blindly
TTITLE2=My Heart
TTITLE3=Daddy's Arms
TTITLE4=Away From Day
TTITLE5=Everything
TTITLE6=(Retro)
TTITLE7=A New Song
TTITLE8=Come to Me
TTITLE9=Fall's Longing
TTITLE10=Sacrifice
TTITLE11=She
TTITLE12=The Prodigal's Return
EXTD=mourning_son@hotmail.com\nwww.usfbcm.com
EXTT0=
EXTT1=
EXTT2=
EXTT3=
EXTT4=
EXTT5=
EXTT6=
EXTT7=
EXTT8=
EXTT9=
EXTT10=
EXTT11=
EXTT12=
PLAYORDER=
